# xmcd
#
# Track frame offsets:
#	150
#	14606
#	29953
#	42819
#	58819
#	73343
#	90414
#	102417
#	117268
#	133255
#
# Disc length: 1969 seconds
#
# Revision: 1
# Processed by: cddbd v1.5.2PL0 Copyright (c) Steve Scherf et al.
# Submitted via: audiograbber 1.83.01
#
DISCID=9607af0a
DTITLE=Gary Harbin - God Still Answers Prayer
DYEAR=2011
DGENRE=Gospel
TTITLE0=How Long Has It Been
TTITLE1=Where Could I Go
TTITLE2=Just A Closer Walk
TTITLE3=God On The Mountain
TTITLE4=God Still Answers Prayer
TTITLE5=Mansion Over The Hilltop
TTITLE6=Somebody Touched The Lord
TTITLE7=In The Garden
TTITLE8=Precious Memories
TTITLE9=Precious Lord Take My Hand
EXTD=
EXTT0=QM-YML-11-00001
EXTT1=QM-YML-11-00002
EXTT2=QM-YML-11-00003
EXTT3=QM-YML-11-00004
EXTT4=QM-YML-11-00005
EXTT5=QM-YML-11-00006
EXTT6=QM-YML-11-00007
EXTT7=QM-YML-11-00008
EXTT8=QM-YML-11-00009
EXTT9=QM-YML-11-00010
PLAYORDER=
